# xmcd
#
# Track frame offsets:
#	150
#	11139
#	24378
#	39384
#	54242
#	64059
#	77450
#	88367
#	105128
#	116139
#	131577
#	145251
#
# Disc length: 2091 seconds
#
# Revision: 0
# Processed by: cddbd v1.5.2PL0 Copyright (c) Steve Scherf et al.
# Submitted via: EasyCDDAExtractor 2010.6.0.0
#
DISCID=9508290c
DTITLE=Neels Kriel - Just Between You And Me
DYEAR=1900
DGENRE=Country
TTITLE0=Just Between You And Me
TTITLE1=Judy
TTITLE2=You'll Never Be Sorry
TTITLE3=Every Little Thing
TTITLE4=Blue Moon Of Kentucky
TTITLE5=Please Don't Leave
TTITLE6=Eighteen Yellow Roses
TTITLE7=There Goes
TTITLE8=Tall Tall Trees
TTITLE9=She's Not Crying Anymore
TTITLE10=Blame It On Your Heart
TTITLE11=On The Road Again
EXTD=
EXTT0=
EXTT1=
EXTT2=
EXTT3=
EXTT4=
EXTT5=
EXTT6=
EXTT7=
EXTT8=
EXTT9=
EXTT10=
EXTT11=
PLAYORDER=
